:SAMPLES-PER-SECOND 30
:FRAME-RANGE 1-2775
:FULLY-SPECIFIED
:DEGREES
2602
root  31.9943 38.9486 -64.515 -158.962 -83.9934 157.376
RightUpLeg  17.8268 -12.5881 -4.75669
RightLeg  12.0905 -12.7274 -0.350041
RightFoot  -17.9067 0.701209 14.2856
RightToes  -5.28216e-011 1.2921e-014 -6.02303e-014
Spine  5.61689 3.47478 1.15559
Spine1  -2.1794 4.8056 -6.99935
HEad  0.371888 20.4138 -2.06599
LeftShoulder1  1.04893 0.770582 -32.3103
LeftArm  15.3866 12.159 -29.4614
LeftForeArm  2.54396 -11.5067 -14.3135
LeftHand  0.51901 -3.80153 -6.29481
RightShoulder  8.45382 10.11 54.2682
RightArm  12.9791 1.764 12.2165
RightForeArm  17.4356 1.12331 17.1983
RightHand  0.34373 4.77274 3.62429
LeftUpLeg  -17.8967 7.06356 -7.85622
LeftLeg  11.7122 14.0148 0.763875
LeftFoot  5.51448 -1.26694 8.30819
LeftToes  -2.158e-010 -1.26819e-010 -1.05346e-011
2603
root  30.8879 39.0416 -64.6209 -152.801 -84.2332 150.703
RightUpLeg  17.3784 -17.6972 -7.73792
RightLeg  18.2014 -5.27695 -2.13395
RightFoot  -15.4382 0.618392 20.0502
RightToes  -5.28216e-011 1.2921e-014 -6.02303e-014
Spine  5.54022 3.67839 1.1241
Spine1  -2.11247 5.18144 -8.67103
HEad  2.28558 20.2736 -1.97526
LeftShoulder1  1.04867 0.784264 -32.4932
LeftArm  9.4008 11.9903 -28.7415
LeftForeArm  5.64576 -8.3245 -15.6703
LeftHand  0.478419 -3.30233 -6.15433
RightShoulder  8.0904 9.51667 54.3023
RightArm  13.6009 0.298511 13.4284
RightForeArm  17.4005 1.1808 17.1789
RightHand  0.419622 4.88806 4.43117
LeftUpLeg  -16.1674 8.05394 -8.23482
LeftLeg  13.1651 12.7719 0.591525
LeftFoot  3.25275 -1.08692 8.31784
LeftToes  -2.158e-010 -1.26819e-010 -1.05346e-011
2604
root  29.8577 39.1197 -64.6689 -151.809 -83.562 149.584
RightUpLeg  13.5165 -15.1385 -8.64509
RightLeg  27.7094 -4.00418 -2.50514
RightFoot  -10.8242 -0.191287 25.5064
RightToes  -5.28216e-011 1.2921e-014 -6.02303e-014
Spine  5.49976 4.17542 1.2097
Spine1  -2.31553 5.71298 -10.0471
HEad  3.96039 20.7942 -2.34347
LeftShoulder1  0.998862 0.936219 -32.8314
LeftArm  7.09493 12.694 -28.4082
LeftForeArm  6.08959 -7.52716 -15.8828
LeftHand  0.455271 -2.90386 -6.15934
RightShoulder  7.90267 9.31617 53.8925
RightArm  16.0328 -1.07986 14.5395
RightForeArm  16.0742 2.36491 17.0949
RightHand  0.559665 5.092 5.87741
LeftUpLeg  -14.7796 7.38287 -8.15378
LeftLeg  14.3579 13.9058 0.763569
LeftFoot  1.07064 -0.84354 7.68514
LeftToes  -2.158e-010 -1.26819e-010 -1.05346e-011
2605
root  28.8567 39.2596 -64.7211 -151.589 -83.1415 149.304
RightUpLeg  8.0491 -13.0388 -9.24201
RightLeg  38.4747 -3.08573 -2.89401
RightFoot  -2.88226 -1.67248 22.0896
RightToes  -5.28216e-011 1.2921e-014 -6.02303e-014
Spine  5.57752 4.38581 1.14874
Spine1  -2.72412 5.90823 -10.5843
HEad  4.46049 21.7957 -2.9278
LeftShoulder1  0.951057 1.07245 -33.0414
LeftArm  8.67361 13.7406 -28.4882
LeftForeArm  4.87007 -8.56365 -15.5438
LeftHand  0.477082 -3.02633 -6.3602
RightShoulder  7.75404 9.16885 53.5113
RightArm  19.3396 -1.81609 15.2936
RightForeArm  14.7051 4.42093 16.7226
RightHand  0.728087 5.38383 7.50535
LeftUpLeg  -12.8784 6.91066 -7.9012
LeftLeg  14.2753 14.6852 0.42827
LeftFoot  -0.558598 -0.666887 7.09239
LeftToes  -2.158e-010 -1.26819e-010 -1.05346e-011
2606
root  28.0067 39.2495 -64.8087 -149.567 -82.9107 146.993
RightUpLeg  2.72174 -11.213 -9.72647
RightLeg  47.5293 -3.24002 -4.11049
RightFoot  3.98328 -2.3096 17.2521
RightToes  -5.28216e-011 1.2921e-014 -6.02303e-014
Spine  6.1837 4.44885 0.15931
Spine1  -2.81364 5.75398 -10.6247
HEad  3.79889 23.0385 -3.81567
LeftShoulder1  0.948346 1.08978 -33.2084
LeftArm  12.7469 14.5602 -28.7962
LeftForeArm  2.33317 -10.4044 -14.9027
LeftHand  0.512012 -3.30685 -6.5984
RightShoulder  7.67763 9.05972 53.4473
RightArm  23.1979 -1.81036 15.6048
RightForeArm  13.3767 6.9771 15.9875
RightHand  0.987416 6.03539 9.65394
LeftUpLeg  -11.6389 6.68767 -7.93932
LeftLeg  15.4335 15.048 0.522384
LeftFoot  -2.50591 -0.484265 6.45714
LeftToes  -2.158e-010 -1.26819e-010 -1.05346e-011
